<svg id="Layer_1" xmlns="http://www.w3.org/2000/svg" width="104" height="104" viewBox="0 0 104 104"><defs><style>.cls-1{fill:none;}.cls-2{fill:#eb5454;}</style></defs><circle class="cls-2" cx="52" cy="52" r="6.93"></circle><path class="cls-2" d="m84.93,57.2c-2.87,0-5.2-2.33-5.2-5.2,0-15.32-12.42-27.73-27.73-27.73s-27.73,12.42-27.73,27.73,12.42,27.73,27.73,27.73c10.58,0,19.78-5.92,24.45-14.64,6.04,3.92,14.21,3.23,19.51-2.07,3.05-3.05,4.57-7.04,4.57-11.03,0-26.8-21.73-48.53-48.53-48.53S3.47,25.2,3.47,52s21.73,48.53,48.53,48.53c13.4,0,25.54-5.43,34.32-14.22l-7.35-7.35c-6.9,6.9-16.43,11.17-26.96,11.17-21.06,0-38.13-17.07-38.13-38.13S30.94,13.87,52,13.87s38.13,17.07,38.13,38.13c0,2.87-2.33,5.2-5.2,5.2Zm-32.93,12.13c-9.57,0-17.33-7.76-17.33-17.33s7.76-17.33,17.33-17.33,17.33,7.76,17.33,17.33-7.76,17.33-17.33,17.33Z"></path></svg>